<?xml version="1.0" standalone="no"?><!DOCTYPE svg PUBLIC "-//W3C//DTD SVG 1.1//EN" "http://www.w3.org/Graphics/SVG/1.1/DTD/svg11.dtd"><svg t="1760885981470" class="icon" viewBox="0 0 1024 1024" version="1.1" xmlns="http://www.w3.org/2000/svg" p-id="1037" xmlns:xlink="http://www.w3.org/1999/xlink" width="200" height="200"><path d="M540.444444 644.437333l152.576-152.576a28.444444 28.444444 0 1 1 40.220445 40.277334l-201.102222 201.102222a28.330667 28.330667 0 0 1-40.277334 0L290.759111 532.138667a28.444444 28.444444 0 0 1 40.220445-40.277334L483.555556 644.437333V199.111111a28.444444 28.444444 0 0 1 56.888888 0v445.326222zM199.111111 796.444444h625.777778a28.444444 28.444444 0 1 1 0 56.888889h-625.777778a28.444444 28.444444 0 1 1 0-56.888889z" fill="#5A6677" p-id="1038"></path></svg>